<?xml version="1.0" standalone="no"?>
<!DOCTYPE svg PUBLIC "-//W3C//DTD SVG 1.1//EN" "http://www.w3.org/Graphics/SVG/1.1/DTD/svg11.dtd" >
<svg>
<metadata>
Created by FontForge 20110222 at Tue Sep 17 01:54:39 2013
 By Orthosie Webhosting
Created by MyScriptFont.com
</metadata>
<defs>
<font id="spaghettistrapMedium" horiz-adv-x="10" >
  <font-face 
    font-family="spaghettistrapMedium"
    font-weight="500"
    font-stretch="normal"
    units-per-em="1000"
    panose-1="2 0 6 3 0 0 0 0 0 0"
    ascent="800"
    descent="-200"
    x-height="441"
    cap-height="656"
    bbox="8.7561 -133.145 460 750"
    underline-thickness="50"
    underline-position="-100"
    unicode-range="U+0020-20AC"
  />
<missing-glyph horiz-adv-x="364" 
d="M33 0v666h265v-666h-265zM66 33h199v600h-199v-600z" />
    <glyph glyph-name=".notdef" horiz-adv-x="364" 
d="M33 0v666h265v-666h-265zM66 33h199v600h-199v-600z" />
    <glyph glyph-name=".null" horiz-adv-x="0" 
 />
    <glyph glyph-name="nonmarkingreturn" horiz-adv-x="333" 
 />
    <glyph glyph-name="space" unicode=" " horiz-adv-x="420" 
 />
    <glyph glyph-name="exclam" unicode="!" horiz-adv-x="93" 
d="M11 99q4 11 22 10.5t26 -11.5q6 -8 6 -13.5t-7 -17.5q-11 -19 -24.5 -18.5t-19.5 19.5q-7 20 -3 31zM47 727q5 8 15 8t16 -8q7 -10 4 -76t-14 -153q-8 -60 -9.5 -110.5t1 -75t2 -41.5t-7.5 -25q-10 -11 -21 -3q-11 7 -13 91.5t8 129.5q6 26 9 90t5 116.5t5 56.5z" />
    <glyph glyph-name="numbersign" unicode="#" horiz-adv-x="420" 
d="M240 647q9 10 20 8q7 -2 9.5 -13t2.5 -43q0 -37 2.5 -45.5t11.5 -7.5q7 1 33.5 3.5t47 5t24.5 4.5q6 4 14 -11q11 -20 -3.5 -28t-60.5 -8q-56 0 -64.5 -8.5t-8.5 -50.5q0 -36 8.5 -43.5t38.5 2.5q26 8 34 0q10 -10 -0.5 -22t-34.5 -18q-15 -4 -20.5 -5t-12.5 -7t-8.5 -9
t-2.5 -17t-0.5 -24t1.5 -38q5 -80 9 -99q3 -17 -7.5 -27.5t-21.5 -0.5q-11 9 -13 107l-2 98l-24 -1q-32 -1 -38.5 -16t-4.5 -76q2 -24 4 -44.5t3 -30.5t2.5 -17t0 -10t-3 -4.5t-8.5 -5.5q-23 -12 -30 9q-6 19 -7 91q-2 83 -8 88q-3 2 -9 1q-42 -8 -59 -7.5t-21 9.5
q-4 13 6.5 20.5t42.5 15.5l38 9v77h-28q-15 0 -28.5 -2t-21.5 -4t-14.5 -2.5t-10 1t-5.5 7.5q-6 14 7.5 22t49.5 11l44 3l-2 60q-2 37 0 49t9 14q16 7 24.5 -8t8.5 -51q0 -45 6.5 -49t31 4.5t36.5 19.5q11 10 11 35t-3.5 45t5.5 34zM236 437q0 36 -7.5 41.5t-39.5 -5.5
q-18 -7 -21.5 -13.5t-3.5 -31.5v-34h72v43z" />
    <glyph glyph-name="dollar" unicode="$" horiz-adv-x="205" 
d="M71 703q20 31 36 9q11 -16 11 -52q0 -21 3 -28t14 -11q15 -6 27.5 -22.5t12.5 -30.5q0 -13 9 -26q9 -14 -2 -34.5t-28 -20.5q-13 0 -16 6t-4 35q-2 42 -10 42t-3 -88q5 -99 10.5 -131.5t22.5 -54.5q20 -26 28 -46t12 -52q7 -62 -37 -103q-14 -14 -14.5 -31t3 -29.5
t-8.5 -29.5q-23 -30 -32 37q-4 25 -8.5 31t-26.5 11q-29 7 -44.5 21.5t-13.5 31.5q2 19 14.5 20.5t27.5 -15.5q16 -18 33 -18q12 0 14 9q3 10 3 76v85l-22 20q-22 21 -22 39t-14 33q-12 14 -24 53t-12 66q0 29 12.5 62.5t27 42.5t19.5 28.5t-2 34.5q-7 13 4 30zM82 487
q-1 81 -12 81q-2 0 -5 -3q-4 -4 -3.5 -59t4.5 -71q11 -37 15 -3q2 19 1 55zM150 169q-1 4 -1 12q-3 43 -10 43q-5 0 -5.5 -18t2.5 -35t7 -16q7 3 7 14z" />
    <glyph glyph-name="percent" unicode="%" horiz-adv-x="445" 
d="M318 295q15 12 30 29.5t23.5 28t17.5 17t17.5 1.5t18.5 -22q9 -16 10 -27t-5 -41q-5 -27 -12 -41t-21 -28q-20 -19 -47 -26.5t-48 0.5q-27 9 -21.5 45t37.5 64zM407 321q3 2 0 7.5t-7.5 7.5t-8.5 -2q-3 -6 4 -12t12 -1zM409 296q0 15 -33 -2q-24 -13 -38 -30
q-9 -12 -13 -24.5t-1 -21t11 -8.5q16 0 45 33.5t29 52.5zM33 519q7 10 12.5 20t6.5 13.5t6 6.5t11.5 2.5t20.5 -2.5q35 -5 46 -15q24 -21 14 -57t-46 -62q-27 -19 -43.5 -19.5t-35.5 18.5q-12 14 -14 21.5t2 26.5q7 28 20 47zM108 515q-13 12 -18.5 10.5t-21.5 -21.5
q-16 -19 -17 -39.5t13 -22.5q12 -3 34.5 16.5t22.5 31.5q0 13 -13 25zM375 610q8 10 14 20l9 15t7 7.5t10 1.5q30 -6 -24 -86q-25 -38 -25 -41q0 -14 -56 -90l-114 -164q-47 -70 -54 -70q-4 0 -10.5 -12t-16 -31.5t-16.5 -29.5q-14 -19 -14 -34q0 -13 -14 -22t-26 -5
q-9 4 -9.5 22.5t8.5 34.5q6 11 26 35.5t35.5 44.5t15.5 26q0 8 26 42l74 98q41 55 53.5 80t34.5 53q24 30 39 60.5t27 44.5z" />
    <glyph glyph-name="ampersand" unicode="&#x26;" horiz-adv-x="406" 
d="M157 658q6 9 30 5t36 -16q23 -25 26 -64.5t-9.5 -80t-28.5 -77.5t-30 -67t-14 -39q0 -13 27.5 -52t36.5 -39q10 0 20 35q7 25 6.5 35t-12.5 31q-12 23 -12 29t9 17q9 10 18 11t16 -1t19 4q11 6 20 -1t20 -17t24 -10q23 0 22 -16q-1 -20 -29 -34q-7 -4 -15 -6
q-15 -4 -22 -14t-19 -49q-15 -44 -13.5 -59.5t20.5 -15.5q8 0 22 -9t38 -12q27 -4 32.5 -15.5t-13.5 -24.5q-16 -9 -40 -6t-43.5 10t-24.5 12q-11 7 -16.5 6t-12.5 -11t-12.5 -21t-15.5 -23t-23 -18q-23 -12 -34 -21q-10 -8 -52 -12t-46 2q-3 6 -17 6t-26 19q-8 12 -9 24
t4 44q6 35 21.5 72.5t53.5 106.5q16 28 17.5 37.5t-5.5 30.5q-9 27 -9 131.5t9 126.5q6 14 18 19.5t23.5 8t14.5 8.5zM203 599q-7 13 -24 13.5t-27 -11.5q-15 -17 -20.5 -75t3.5 -112q5 -33 17 -31q8 1 12 19q2 7 9.5 27t15 40.5t14.5 47t7 45.5t-7 37zM147 247q2 35 -10 33
q-20 -4 -52 -83q-5 -12 -10 -26q-24 -70 -21 -91t38 -21q33 0 57 16.5t61 64.5q6 7 4.5 13.5t-11.5 20.5q-16 22 -37 33q-15 7 -18 14t-1 26z" />
    <glyph glyph-name="quotesingle" unicode="'" horiz-adv-x="104" 
d="M48 635q22 24 40 2q6 -7 6 -12t-3 -9t-6.5 -16t-3.5 -29q0 -27 -21 -47q-30 -29 -45 -12q-16 18 9 59q1 3 3 5q16 24 14.5 37.5t6.5 21.5z" />
    <glyph glyph-name="parenleft" unicode="(" horiz-adv-x="351" 
d="M280 657q6 0 15 3.5t15.5 7.5t13 6.5t11 -0.5t6.5 -12q1 -7 -28 -28.5t-63.5 -46.5t-42.5 -36q-17 -24 -36.5 -50t-25 -34t-18 -35t-23.5 -62t-33 -106q-20 -67 -21 -129t18 -101q17 -36 28 -48q10 -12 5 -20t-21 -8q-19 0 -29 15.5t-17 41t-13 35.5q-9 15 -10.5 74.5
t6.5 76.5q6 13 14 52l16 79q17 84 81 181q24 38 80 90.5t72 53.5z" />
    <glyph glyph-name="parenright" unicode=")" horiz-adv-x="276" 
d="M202 642q0 -10 18 -29.5t18 -27.5q0 -12 15 -50q16 -42 13 -103t-27 -166q-7 -28 -28.5 -73t-33.5 -55q-7 -6 -24 -37.5t-31 -49.5q-20 -27 -20 -33t-29 -51q-18 -27 -27 -36t-18 -7q-20 2 -18 19.5t25 43.5q24 27 46 66t38 60q19 24 32.5 50t19.5 33q10 12 28 63.5
t18 68.5q0 19 8 35q17 33 2 115.5t-44 113.5q-16 18 -23.5 42t0.5 34t12 10q7 0 18.5 -14t11.5 -22z" />
    <glyph glyph-name="asterisk" unicode="*" horiz-adv-x="284" 
d="M136 651q8 14 23 -5q8 -9 4.5 -53.5t2.5 -46.5q6 -5 27 10t38.5 26.5t34.5 -0.5q7 -7 8 -12.5t-5 -17.5q-8 -19 -21 -15t-34 -14q-8 -6 -11 -9t-5.5 -6t1 -6t6 -6.5t11 -11.5t15.5 -16q11 -12 12.5 -18t-4.5 -13q-16 -15 -29.5 -9.5t-27.5 15.5t-17.5 6.5t0.5 -41
t-9 -47.5q-12 -10 -24 -2q-7 4 -9 15t0 40q2 44 -6.5 47.5t-41.5 -24.5q-25 -22 -43.5 -23.5t-21.5 17.5q-1 9 4.5 15.5t20.5 14.5q56 30 53 44q-1 7 -17 7q-18 0 -26.5 11.5t-4.5 28.5q5 16 17 17.5t25 -6t24 -14t14 -2.5q3 5 8.5 52.5t7.5 51.5z" />
    <glyph glyph-name="plus" unicode="+" horiz-adv-x="351" 
d="M179 488q13 10 26.5 10t14.5 -9t2 -56v-47l29 2q29 2 49 10q17 7 29 0.5t12 -22.5q0 -14 -10.5 -19t-46.5 -6q-45 -1 -55 -14t-10 -70q0 -43 -2.5 -54.5t-12.5 -17.5q-19 -10 -26.5 2t-2.5 43q6 33 1 65l-4 31h-73q-88 0 -89 18q0 5 5 13t20.5 10t65.5 2h78l2 28
q2 18 -1.5 33t-7 22t-3 13.5t9.5 12.5z" />
    <glyph glyph-name="comma" unicode="," horiz-adv-x="104" 
d="M50 101q-7 35 0.5 51t23.5 13q11 -1 14 -11t4 -54l2 -63l-30 -36q-30 -36 -36 -36t-14 16q-6 10 -2.5 18.5t11.5 15t16 17.5t12 27t-1 42z" />
    <glyph glyph-name="hyphen" unicode="-" horiz-adv-x="234" 
d="M63 308q120 19 148 -3q29 -23 -10 -28q-13 -1 -51 -2q-67 -1 -93 -7q-29 -7 -39 -2.5t-7 21.5q1 8 12 12t40 9z" />
    <glyph glyph-name="period" unicode="." horiz-adv-x="84" 
d="M19 144q9 9 15.5 8t18.5 -14q22 -22 21 -47t-24 -25t-35.5 30.5t4.5 47.5z" />
    <glyph glyph-name="slash" unicode="/" horiz-adv-x="369" 
d="M320 690q8 9 21.5 8.5t17.5 -10.5q3 -8 -26 -62t-29 -62q0 -6 -9.5 -21.5t-29 -49.5t-37.5 -71q-30 -66 -38 -71t-22.5 -37t-14.5 -44q0 -8 -8 -24t-31 -62.5t-48 -101.5q-22 -50 -46 -30q-12 10 -9.5 24t22.5 44q20 32 50 93.5t50 108t20 49.5q0 5 17 28
q24 32 77.5 133.5t59.5 127.5q6 21 13 30z" />
    <glyph glyph-name="zero" unicode="0" horiz-adv-x="309" 
d="M66 568q12 25 60.5 77.5t81.5 53.5q13 0 30 -14t32 -38q12 -18 16 -38.5t8 -77.5q6 -87 4 -116q-5 -107 -22 -173t-49 -109q-19 -25 -29 -31.5t-35 -9.5q-81 -9 -114 24q-25 26 -32 58t-7 122q0 81 3.5 106.5t20.5 77.5q24 72 32 88zM100 539q0 -8 -8 -24t-17.5 -36.5
t-17.5 -68.5t-8 -111q0 -86 11 -118.5t45 -46.5q26 -10 52 -2q28 9 40.5 23t27.5 54q24 64 33 128.5t6 157.5l-2 111l-25 21q-26 21 -29 20l-20 -3q-20 -4 -54 -44.5t-34 -60.5z" />
    <glyph glyph-name="one" unicode="1" horiz-adv-x="79" 
d="M20 294q0 137 -3.5 233t-5.5 119.5t0 26.5q8 13 22 -4q15 -19 23 -289t12 -286q2 -12 -0.5 -18t-14.5 -14q-19 -12 -26 -5t-7 237z" />
    <glyph glyph-name="two" unicode="2" horiz-adv-x="270" 
d="M83 672q26 6 70.5 1.5t59.5 -14.5q24 -16 35.5 -42t7.5 -54q-3 -20 -26.5 -76t-42.5 -90q-24 -42 -50 -117.5t-30 -86.5q-13 -28 -13 -33t-15 -36q-21 -44 -5 -47q4 -1 11 3t47.5 18t51.5 21q18 12 37.5 15.5t28.5 -3.5q18 -16 3.5 -37t-45.5 -24q-42 -5 -89 -17t-74 -26
q-26 -13 -32.5 -4.5t2.5 43.5q5 22 14.5 45.5t15.5 37t6 16.5q0 4 16 42t35 85t25 66q10 37 27 62q44 68 54 123t-17 84q-8 9 -38 15q-18 4 -32 2.5t-39 -10.5q-47 -16 -51 -11q-1 2 -1 9q0 12 15.5 23.5t37.5 16.5z" />
    <glyph glyph-name="three" unicode="3" horiz-adv-x="328" 
d="M50 683q9 9 27.5 11t75.5 2q85 -1 112.5 -8.5t39.5 -31.5q13 -25 13 -45q0 -30 -35 -81t-73 -78l-17 -12l30 -26q30 -26 30 -38q0 -7 2 -11t5 -7t6.5 -19t5.5 -43q5 -57 -10.5 -108.5t-47.5 -83.5q-21 -21 -31.5 -26t-37.5 -4q-69 0 -118 70q-15 23 -16.5 29.5t7.5 20.5
q12 21 24.5 19.5t17.5 -23.5q8 -42 49 -61.5t71 4.5q9 7 32 47q15 26 18.5 41.5t3.5 46.5q-1 46 -8 68t-25 35q-14 10 -22 11t-31 -5t-30 -5.5t-13 8.5q-23 30 9 51q21 13 78 65q33 30 47.5 47.5t19.5 34.5q6 20 5.5 27t-9.5 15q-26 24 -79 30.5t-94 -8.5q-28 -11 -40 5
t8 36z" />
    <glyph glyph-name="four" unicode="4" horiz-adv-x="246" 
d="M21 715q1 7 12 5.5t16 -8.5q6 -9 6 -146t6 -147q6 -8 49.5 -5.5t62.5 12.5q12 6 13 37q1 34 -7 203q-1 26 1 36t9 14q14 9 26 0t11 -28q-1 -9 -2.5 -114.5t0 -234t7.5 -161.5q8 -36 3 -52.5t-23 -16.5q-13 0 -17.5 29.5t-4.5 118.5v26v33t-1.5 23.5t-2 17.5t-6 10
t-8.5 6.5t-13 1t-17.5 -1t-24.5 -4.5q-12 -2 -19 -3q-63 -10 -76.5 -3.5t-8.5 43.5q3 24 5 99t3 141.5t1 68.5z" />
    <glyph glyph-name="five" unicode="5" horiz-adv-x="296" 
d="M247 717q8 7 23 -3t15 -23q0 -14 -15.5 -18t-82.5 -5q-78 -1 -88 -8q-9 -6 -7 -39t6 -61.5t6 -36.5q4 -14 9.5 -17.5t21.5 -1.5q38 3 77.5 -24.5t59.5 -71.5t12.5 -149t-33.5 -149q-20 -34 -34.5 -46t-43.5 -15q-29 -4 -52.5 5t-67.5 41q-26 19 -33 34.5t-10 65.5
q-1 25 8 36.5t25 5.5q12 -5 12 -48q0 -23 2.5 -32t6 -13t20.5 -15t33 -24q24 -19 37.5 -22.5t30.5 5.5q12 7 27 38t23 67q8 34 10.5 101t-3.5 71q-5 3 -19 31t-22 39q-13 14 -39 17t-54 -8q-13 -5 -20.5 -7t-14 0t-9.5 6.5t-5 17.5t-2.5 28t-0.5 43l-2 60t-1.5 47t-1 31.5
t0.5 22t4 11.5q7 8 97 8t94 5z" />
    <glyph glyph-name="six" unicode="6" horiz-adv-x="272" 
d="M90 632q0 4 24.5 29.5t56.5 50t47 22.5q22 -3 22 -19.5t-22 -28.5q-30 -16 -79 -65.5t-53 -67.5q-5 -23 -14 -34q-9 -9 -18 -60.5t-6 -77.5q1 -14 4.5 -18.5t12.5 -2.5q17 2 45 11t34 13q7 6 34 6t43 -7q41 -15 41 -122q0 -61 -11 -97t-37 -60q-16 -15 -27.5 -19
t-32.5 -4q-24 0 -34.5 5t-33.5 29q-33 34 -47 63q-25 51 -28.5 174.5t17.5 186.5q8 23 23.5 43.5t27 32t11.5 17.5zM208 334q-18 19 -55.5 11t-74.5 -40q-17 -14 -19.5 -21t3.5 -31q5 -25 16.5 -53t11.5 -36q0 -11 31 -26q24 -11 31.5 -11.5t28.5 9.5q16 7 24 16t13 26
q10 29 6 85.5t-16 70.5z" />
    <glyph glyph-name="seven" unicode="7" horiz-adv-x="349" 
d="M196 331q0 -9 -7 -16.5t-7 -18.5q0 -6 -2.5 -13t-7 -17.5t-16 -40t-24.5 -69.5q-21 -58 -29.5 -75.5t-17.5 -17.5q-16 0 -17.5 25t13.5 51q11 19 26 68t24 64q17 28 58 141l86 230l-15 8q-15 8 -131 9q-79 0 -98 2.5t-21 11.5q-2 13 5 21.5t156 7.5q136 -1 156 -10
q19 -9 6 -39q-4 -9 -16 -30q-39 -72 -51 -99.5t-12 -42.5q0 -20 -12 -39q-13 -18 -29.5 -58.5t-16.5 -52.5z" />
    <glyph glyph-name="eight" unicode="8" horiz-adv-x="436" 
d="M209 691q33 10 83.5 2.5t78.5 -26.5q19 -12 30.5 -37t10.5 -53q-1 -30 -12 -78.5t-21.5 -69.5t-10.5 -29q0 -5 -6.5 -13t-13 -15t-12 -14t-4 -13t12.5 -9q39 -12 59.5 -50t21.5 -98q1 -38 -2 -52.5t-17 -34.5q-17 -24 -30.5 -33t-32.5 -9q-15 0 -48 -16
q-21 -11 -40.5 -13.5t-69.5 -2.5q-51 1 -68 3.5t-34.5 14.5t-33.5 19q-34 15 -39 62t22 85q18 24 18 32.5t33 44.5q24 27 26 33t-9 11q-20 11 -35 50.5t-15 82.5q0 45 11.5 79.5t40.5 76.5q21 30 41 43.5t65 26.5zM233 642q-3 12 -10.5 12.5t-31.5 -8.5q-25 -9 -35.5 -19
t-32.5 -44t-35 -83t-3 -62q6 -7 12 -24t11.5 -29.5t20.5 -23t39 -9.5q142 3 173 65q9 17 19 59t13 89.5t-16 69.5q-13 14 -36.5 14t-42.5 -15q-16 -13 -28.5 -10.5t-16.5 18.5zM319 303q-29 13 -37 13t-33 -13q-28 -15 -71 -17q-31 -1 -41.5 -6t-30.5 -27q-32 -36 -43.5 -58
t-11.5 -46q0 -23 13 -40t45 -35q16 -9 70.5 -11.5t80.5 4.5q88 25 118 61.5t9 95.5q-11 32 -26 49.5t-42 29.5z" />
    <glyph glyph-name="nine" unicode="9" horiz-adv-x="331" 
d="M99 727q21 11 36 13.5t53 -0.5q57 -3 77 -18.5t29 -15.5q43 0 17 -111q-12 -52 -17.5 -170.5t-7.5 -215.5t-8 -108q-13 -24 -28 -10q-18 16 -8 50q0 1 1 2q8 25 10 73l7 161q5 112 0.5 120t-20.5 -3q-22 -14 -67 -23.5t-72 -5.5t-51.5 22.5t-34.5 42.5q-16 40 12.5 107
t71.5 90zM277 663q-1 12 -1 15.5t-2.5 9t-4.5 5.5t-10 2t-15 2t-23 1t-33 3q-45 5 -72 -6.5t-47 -44.5q-11 -19 -16 -56t2 -56q8 -19 38.5 -33t52.5 -8q29 8 59.5 23.5t41.5 28.5q15 16 23.5 49.5t6.5 64.5z" />
    <glyph glyph-name="colon" unicode=":" horiz-adv-x="205" 
d="M22 125q13 14 34.5 12t23.5 -18t-23.5 -35.5t-36.5 -10.5q-10 9 -10 24.5t12 27.5zM143 455q11 12 17 12.5t21 -10.5t13 -26t-21 -29q-20 -15 -33 -7q-11 7 -10 26.5t13 33.5z" />
    <glyph glyph-name="semicolon" unicode=";" horiz-adv-x="233" 
d="M74 129q8 9 20.5 8.5t20.5 -9.5t5 -56q-2 -32 -8.5 -46.5t-33.5 -48.5q-38 -48 -53 -46q-36 5 15 60l34 36l-4 47q-4 48 4 55zM169 458q16 25 35 17t19 -39q0 -32 -18 -37t-36 23q-8 13 -8 18.5t8 17.5z" />
    <glyph glyph-name="less" unicode="&#x3c;" horiz-adv-x="407" 
d="M354 558q7 9 20 6t21 -16q5 -9 -5 -22t-26 -17q-12 -3 -84 -37.5t-105 -45.5q-32 -11 -59 -27t-27 -24q0 -5 52 -31l106 -55q54 -28 74 -28q19 -1 31 -17.5t3 -32.5q-8 -15 -16 -15q-15 0 -89.5 42.5t-85.5 43.5q-9 0 -18 5t-32.5 20t-52.5 30q-30 15 -40.5 23.5
t-10.5 17.5q0 18 22 30t59 24t54 23q23 14 32 14q11 0 90 40t87 49z" />
    <glyph glyph-name="equal" unicode="=" horiz-adv-x="408" 
d="M32 298q3 7 34 9.5t140 2.5q112 1 141.5 -1t32.5 -9q5 -12 -2 -18q-5 -5 -160.5 -11t-175.5 6q-14 10 -10 21zM11 451q3 9 11.5 10t36.5 -2q93 -7 199 -8q127 0 137 -12q5 -6 -3 -19q-5 -9 -21 -10t-91 1q-60 1 -101 2q-93 2 -124 5t-38 10q-11 11 -6 23z" />
    <glyph glyph-name="greater" unicode="&#x3e;" horiz-adv-x="430" 
d="M12 572q4 11 26 12t26 -10q6 -15 49.5 -41.5t68.5 -30.5q17 -2 27 -6.5t17 -10.5t32.5 -19.5t64.5 -29.5q78 -32 87 -40q19 -16 3.5 -34.5t-51.5 -23.5q-18 -3 -61.5 -20t-85.5 -28q-37 -9 -60 -20.5t-31 -17.5t-13 -6q-8 0 -15 -18q-6 -15 -22.5 -22t-31.5 -1t-17 21
q-1 8 1.5 14t9.5 12t14.5 10.5t23.5 11.5t30 12t39 15t46 18q30 13 56.5 21.5t40 12t23.5 6t13.5 4.5t3.5 7q0 11 -40.5 37t-58.5 26q-5 0 -20 7.5t-51 27t-68 36.5q-51 25 -66.5 39t-9.5 29z" />
    <glyph glyph-name="question" unicode="?" horiz-adv-x="237" 
d="M110 -17q-22 0 -20 22q3 19 19 24q12 4 24 -10q9 -12 1.5 -24t-24.5 -12zM10 613q0 28 25.5 53.5t78.5 25.5q25 0 35 -5t33 -29q35 -38 42 -60.5t-2 -67.5q-9 -41 -26 -68t-59 -66q-21 -20 -27 -30t-4 -15.5t7 -25t5 -45.5q0 -17 3.5 -42t6 -42.5t3 -34t-7 -24
t-22.5 -5.5q-8 1 -10.5 4t-3 13t0 22.5t-0.5 40t-4 58.5q-5 38 -10 56t-17 33q-18 23 -13 35.5t35 16.5q24 4 49 23t36 44q11 23 16 72l5 49l-27 25q-23 22 -45.5 24.5t-41.5 -14.5q-10 -9 -11.5 -15.5t4.5 -20.5q7 -19 1.5 -32.5t-21.5 -16.5q-10 -1 -21.5 21t-11.5 43z
" />
    <glyph glyph-name="at" unicode="@" horiz-adv-x="333" 
d="M63 559q29 59 58.5 85.5t78.5 23.5q22 -1 31 -7.5t31 -36.5q34 -47 47 -86.5t14 -95.5q3 -139 -41 -209q-34 -54 -75 -24q-18 13 -20 28t-13 16q-10 0 -10 -13q0 -16 -15.5 -27t-35.5 -9q-23 2 -29.5 22.5t-2.5 74.5q3 32 7.5 45t16.5 25q35 33 84 33q25 0 33 -16.5
t4 -39t-3.5 -46.5t9.5 -38q8 -10 11 -10.5t9 8.5q8 10 20 45.5t14 39.5q6 12 4 80q-1 49 -6 67.5t-31 68.5q-25 48 -33.5 58.5t-25.5 11.5q-24 2 -46 -18q-62 -59 -90.5 -181t-5.5 -228q8 -36 16.5 -59.5t12.5 -32.5t4 -18q0 -25 35.5 -39.5t75.5 -6.5q20 4 27 12.5t21 43.5
q19 50 25 71q6 19 18.5 27.5t21.5 -0.5q11 -11 -9.5 -67t-47.5 -90q-26 -32 -50 -42.5t-58 -3.5q-28 5 -57.5 31t-37.5 52q-8 27 -18.5 53.5t-13 38t-5 41.5t-2.5 87q0 94 9.5 138.5t43.5 116.5zM165 323q2 21 0 26t-14 5q-17 0 -26 -23q-22 -55 -9 -73q6 -9 10.5 -7.5
t16.5 18.5q19 24 22 54z" />
    <glyph glyph-name="A" unicode="A" horiz-adv-x="252" 
d="M88 690q1 14 29 37t41 23q26 0 50 -64q9 -24 12.5 -61t5.5 -144q8 -332 14 -342q6 -9 -1.5 -31.5t-17.5 -27.5q-19 -11 -24 7q-6 21 -4 127q1 126 -6 126q-18 0 -70 -9.5t-57 -13.5q-7 -5 -13.5 -109t-11.5 -109q-6 -6 -17 2q-6 6 -7 19t1 64q3 76 5 139q1 56 2.5 84.5
t3.5 34.5t4.5 15t4.5 24q10 83 17 100l22 54q16 39 17 55zM172 663q-7 13 -16.5 14.5t-18.5 -9.5q-10 -13 -23 -49.5t-23.5 -72t-11.5 -37.5q-7 -17 -14.5 -72.5t-3.5 -62t55 -2t61 11.5q16 13 14 131t-19 148z" />
    <glyph glyph-name="B" unicode="B" horiz-adv-x="215" 
d="M20 688q9 11 18.5 9.5t57.5 -20.5q56 -22 80 -45t28 -59q2 -11 1.5 -22t-0.5 -19.5t-3 -18.5t-4.5 -16t-7.5 -16.5t-8 -14.5t-10 -15.5t-10 -14.5t-12.5 -16t-12.5 -16q-13 -17 -17.5 -27t-1.5 -15t14 -7q56 -10 64 -123q5 -70 -35 -126t-95 -56q-32 0 -39 9
q-12 15 -14 115q0 14 -1 56q-7 440 8 458zM98 631q-38 21 -46 1q-6 -14 -2 -122.5t10 -110.5q12 -4 37.5 23.5t46 65t20.5 59.5q0 19 -20.5 45t-45.5 39zM129 294q-14 16 -37 25.5t-31 1.5q-6 -6 -5 -116t8 -114q7 -5 32 15q41 30 51.5 92t-18.5 96z" />
    <glyph glyph-name="C" unicode="C" horiz-adv-x="249" 
d="M84 665q38 41 53 41q11 0 48 -25t42 -27q13 -5 11 -27.5t-15 -31.5q-8 -4 -16 0.5t-28 26.5q-31 34 -42 34t-30 -22t-19 -34.5t-7 -19.5q-8 -8 -18 -74.5t-12.5 -134t10.5 -107.5q10 -26 18.5 -61t8.5 -53q0 -15 21 -35.5t34 -18t23.5 25.5t23.5 77q18 71 30 72q4 0 9 -4
q17 -14 6 -80.5t-36 -107.5q-15 -23 -33.5 -29.5t-52.5 -0.5l-34 6l-23 65q-31 91 -39.5 145t-5.5 147q3 109 17.5 159t55.5 94z" />
    <glyph glyph-name="D" unicode="D" horiz-adv-x="261" 
d="M45 713q14 24 45 -22q12 -18 23 -26.5t32 -25.5t51 -52q35 -42 44.5 -65t10.5 -75q2 -66 -26 -172t-57 -143q-15 -18 -33.5 -48t-29.5 -42t-24 -12q-17 0 -36 -8q-22 -10 -30 1.5t-3 42.5q4 22 4.5 68.5t5.5 86.5q5 43 8 164.5t6.5 220.5t8.5 107zM142 580q-49 47 -56 47
q-10 0 -13 -52t-6.5 -166.5t-10.5 -199.5q-6 -78 -3 -107t17 -29q6 0 28 28t22 36q0 7 9 14q19 15 39 65.5t25 95.5q3 27 7.5 60.5t6 43t2 25.5t-1.5 25.5t-6 25.5q-6 27 -16.5 42.5t-42.5 45.5z" />
    <glyph glyph-name="E" unicode="E" horiz-adv-x="282" 
d="M110 663q29 13 43 13t59 -16q35 -12 42.5 -17.5t7.5 -19.5t-3.5 -17t-16.5 -2q-14 2 -30.5 9.5t-28.5 12.5t-26 7t-28 -8.5t-30 -33.5q-43 -68 -24 -148q9 -39 23 -50t53 -9q27 2 33.5 -0.5t7.5 -13.5q2 -15 -6.5 -26.5t-19.5 -7.5q-12 5 -33.5 -7t-41.5 -33.5t-32 -57
t-6 -73.5q3 -22 9.5 -31.5t27.5 -23.5q32 -22 46 -22q15 0 50 25.5t42 42.5q15 31 36 9q12 -11 5 -24t-42 -46q-44 -43 -66 -44q-52 -4 -79 9.5t-51 54.5q-23 40 -21 81t16 72t24 55.5t4 30.5q-8 8 -20 74q-8 45 -8 64t8 56q10 48 27.5 74t48.5 41z" />
    <glyph glyph-name="F" unicode="F" horiz-adv-x="245" 
d="M109 686q110 6 121 -1q5 -3 5 -14q0 -14 -9.5 -17t-62.5 -7q-72 -6 -81 -15q-14 -13 -21.5 -104t4.5 -98q4 -2 19 0.5t34 7.5t37.5 9t31 3t12.5 -8q0 -9 -25.5 -22.5t-67.5 -26.5l-44 -14l-5 -50q-6 -51 -2 -148q3 -67 1.5 -84t-10.5 -26q-8 -7 -13 -7.5t-13 4.5
q-9 7 -10 49t5 237q4 140 10 251q2 32 1.5 38.5t-3.5 11.5q-9 17 9 22q17 5 77 9z" />
    <glyph glyph-name="G" unicode="G" horiz-adv-x="250" 
d="M46 610q0 20 34.5 56.5t70.5 39.5q8 0 48.5 -34.5t40.5 -42.5t-16 -19q-11 -8 -17.5 -5t-24.5 23q-26 28 -39 28q-11 0 -32.5 -21t-21.5 -31q0 -9 -14 -36q-22 -41 -28 -138t6 -185.5t36 -108.5q16 -13 33.5 -12t23.5 16q12 31 25 81t16 80l5 44l-32 7q-35 6 -33 16
q3 11 48 16q16 1 27 1t18.5 -0.5t11 -5t5.5 -7.5t1 -12t-2.5 -15.5t-5 -20.5t-5.5 -24q-24 -125 -32 -150.5t-29 -50.5q-23 -29 -39.5 -30t-50.5 26q-62 50 -64 288q0 73 5 119.5t12 60.5t13 25.5t6 21.5z" />
    <glyph glyph-name="H" unicode="H" horiz-adv-x="302" 
d="M16 682q8 10 18 10q9 0 13.5 -5t7.5 -22.5t4.5 -44.5t1.5 -78q2 -130 9 -137q5 -5 73.5 -1t87.5 11q6 2 7.5 29t-0.5 110q-2 91 -0.5 113t9.5 24q21 4 25 -41t3.5 -164.5t8.5 -217.5q9 -105 8 -137t-12 -39q-12 -8 -24 4t-15.5 137.5t-7.5 129.5q-6 5 -88 -4l-82 -9
l2 -105q5 -183 1 -193q-2 -5 -11 -6q-18 -2 -23 13q-10 26 -13 250v17q-2 168 -7 299q-2 37 -1.5 44t5.5 12v1z" />
    <glyph glyph-name="I" unicode="I" horiz-adv-x="103" 
d="M12 649q5 7 22 7t22 -8q4 -6 7.5 -186.5t9.5 -197.5q7 -21 15 -103t4 -92q-4 -12 -15.5 -9.5t-16.5 16.5q-17 44 -28 178.5t-15.5 253.5t-5.5 121q-3 13 1 20z" />
    <glyph glyph-name="J" unicode="J" horiz-adv-x="231" 
d="M181 651q2 6 21 4l19 -2l-2 -94q-3 -164 -5.5 -241.5t-11 -130.5t-16.5 -68.5t-30 -43.5q-12 -16 -20 -19.5t-31 -2t-33 8t-31 32.5q-23 28 -27 40t-4 52q0 32 2.5 43.5t9.5 14.5q12 5 21.5 -10t10.5 -42q1 -31 7 -46.5t23 -29.5q14 -10 19.5 -11t16.5 6q24 16 38 101.5
t17 178t4 174.5t2 86z" />
    <glyph glyph-name="K" unicode="K" horiz-adv-x="301" 
d="M12 671q-5 16 2.5 23t19 5t18.5 -10.5t9.5 -110.5t-2.5 -152q-3 -31 4 -31q6 0 12 22q4 17 19 33.5t15 19.5q0 6 36 61t57 80q22 27 22 39q0 9 19.5 25.5t29.5 16.5q7 0 15 -10q7 -8 -9 -31t-35.5 -46.5t-19.5 -30.5t-19 -27q-15 -15 -15.5 -22t6 -21t6.5 -35
q-1 -18 11.5 -127.5t17.5 -120.5q5 -10 10 -52t12 -65q7 -21 6.5 -28t-8.5 -15t-12 -8t-14 9q-6 6 -9 13.5t-5.5 24.5t-4.5 37t-8 61t-15 88q-18 100 -22.5 128t-12.5 31q-4 1 -11 -11t-14.5 -28t-19 -32t-21.5 -21l-20 -10v-124q0 -117 -10 -131q-6 -9 -22 -6q-8 1 -11 11
q-6 23 -4 358q1 96 1 128q0 77 -4 92z" />
    <glyph glyph-name="L" unicode="L" horiz-adv-x="248" 
d="M26 694q5 7 16.5 3.5t17.5 -14.5q8 -12 0 -43q-5 -21 -5 -272.5t6 -256.5q3 -3 77 4q52 6 65.5 5t22.5 -10q23 -22 0 -30q-18 -6 -76 -10q-81 -5 -101 -12q-21 -8 -32 1.5t-6 31.5q4 19 8 308t7 295z" />
    <glyph glyph-name="M" unicode="M" horiz-adv-x="322" 
d="M186 486q0 9 18 49.5t18 44.5q0 6 10 26.5t14 42.5q5 24 17 37t25 13t20 -13t3.5 -76.5t-13.5 -129.5q-7 -46 -7 -155t7 -159q2 -18 -6 -37.5t-19 -19.5q-8 0 -18.5 19.5t-5.5 26.5q5 5 8.5 108.5t3.5 190.5t-4 101q-6 0 -6 -10q0 -6 -39.5 -101.5t-39.5 -112.5
q0 -12 -11.5 -20t-25.5 -6q-10 1 -15 10t-10 39q-9 47 -10 78q0 24 -8 55.5t-14 31.5q-9 0 -18 -58.5t-14 -130.5t-5 -136t8 -74t1 -25q-6 -10 -9.5 -11t-14.5 6q-12 7 -14 27.5t-2 122.5q0 111 4 168t8.5 65t8.5 34.5t4 83.5q0 78 6 86q3 4 13 8q29 11 39 -7t18 -90
q3 -36 14 -77t14 -65q5 -34 13 -34q7 0 20.5 29.5t13.5 44.5z" />
    <glyph glyph-name="N" unicode="N" horiz-adv-x="301" 
d="M258 671q11 7 16 6t13 -11q6 -6 3 -28t-16 -85q-20 -93 -26 -143.5t-8 -159.5q-1 -72 -3.5 -95t-9.5 -27q-10 -6 -22 2t-12 21q0 7 -3.5 12.5t-11.5 21t-16 39.5l-37 123q-25 82 -34 145q-16 115 -27 13q-9 -85 -10 -252q-1 -148 -7 -159q-2 -4 -9 -5q-16 -2 -23.5 9
t-2.5 30q6 21 1 125q-5 126 19 349q3 32 12.5 50.5t23.5 18.5q9 0 14 -8q6 -11 28 -89t30 -119l17 -87q7 -34 21.5 -72.5t21.5 -40.5q1 -1 3 2t2.5 8t0.5 11q-2 35 2.5 87t10 92.5t12.5 86.5t8 55q8 67 19 74z" />
    <glyph glyph-name="O" unicode="O" horiz-adv-x="265" 
d="M113 670q17 15 26 18t29 0q25 -4 40.5 -17t15.5 -31q0 -9 10.5 -34t15.5 -65q14 -118 -10.5 -231.5t-79.5 -178.5q-11 -13 -22 -19t-30 -8q-23 -2 -30.5 1t-20.5 23q-19 28 -35 89q-28 112 15 284q18 75 34.5 111t41.5 58zM217 358q15 100 -9 201q-21 85 -55 82
q-15 -1 -31 -22q-34 -44 -53.5 -148t-13 -200t40.5 -117q12 -7 18 -7t19 9q19 12 19 24q0 9 7.5 22t17.5 27.5t21.5 49t18.5 79.5z" />
    <glyph glyph-name="P" unicode="P" horiz-adv-x="269" 
d="M26 681q14 10 17.5 10t25.5 -9q26 -11 56 -11q24 0 59 -16t49 -33q14 -16 21 -49t4 -61q-3 -21 -10.5 -34t-27.5 -33q-27 -28 -50.5 -40.5t-56.5 -18.5q-11 -1 -16.5 -2.5t-12.5 -3.5t-10 -7.5t-7 -10t-5.5 -15.5t-3 -21t-2 -30t-1 -37.5t-1.5 -49.5q-3 -137 -14 -152
q-6 -8 -20 -2q-7 3 -8.5 55.5t-1.5 254.5q0 280 6 302q3 9 10 14zM91 623q-6 6 -15 4t-16 -10q-8 -10 -8 -101.5t7 -98.5q8 -8 48 7t70 36q60 43 42 98q-10 30 -30 44t-54 15q-39 1 -44 6z" />
    <glyph glyph-name="Q" unicode="Q" horiz-adv-x="347" 
d="M183 709q24 13 52.5 11.5t42.5 -16.5q34 -35 48 -137.5t12 -191.5t-11 -119q-6 -20 -11 -46t-10 -41t-17.5 -33.5t-16 -32.5t-2.5 -43q1 -32 6 -46t29 -46q6 -9 -7 -24q-10 -11 -13.5 -11.5t-12.5 9.5q-12 13 -24 46q-16 43 -26.5 50.5t-48.5 -0.5q-60 -12 -91 2.5
t-44 60.5l-20 70q-8 28 -8 147q0 80 2.5 104.5t13.5 47.5q10 21 19 52t20 57t33 52q24 28 24 37t19 19zM277 591q-3 27 -8 45t-10.5 25.5t-12 12t-12 3.5t-10.5 0q-27 0 -39 -5t-36.5 -38t-37.5 -61q-10 -22 -26 -48t-21.5 -39.5t-10 -54.5t-4.5 -114q0 -54 2.5 -92t8 -68
t15 -46.5t23 -27t32.5 -10t44 4.5q26 5 28.5 17t-9.5 60q-9 34 0 43t21 -0.5t20 -30.5q15 -47 30 -16q5 12 10 34q3 20 9 47l8 36t5 35.5t2 46.5t-1 69q-2 50 -4.5 77t-4.5 34t-5.5 22t-5.5 39z" />
    <glyph glyph-name="R" unicode="R" horiz-adv-x="321" 
d="M16 707q7 7 31.5 13.5t31.5 4.5l16 -3.5t33 -7.5t33 -8.5t19 -6.5q7 -6 21.5 -7.5t31.5 -10t36 -32.5q27 -33 36 -63q7 -20 6 -30t-11 -32q-11 -22 -26.5 -38.5t-50.5 -40.5l-7.5 -5t-4.5 -4.5t-3 -5t-1 -7.5t0.5 -11t2.5 -16.5t2.5 -23t3.5 -31.5t4 -41q12 -155 34 -178
q15 -14 7 -33.5t-30 -23.5q-9 -2 -14 10.5t-16 62.5q-12 53 -19 104.5t-9.5 79t-6 49.5t-10 29t-20.5 6q-18 -2 -32.5 -12.5t-22.5 -13.5q-9 -3 -11 -27t-1 -129q0 -100 -1.5 -128t-9.5 -36q-9 -8 -12 -8t-11 11q-5 6 -6.5 11.5t-1.5 14v30t0.5 49.5t-1 81.5t-5.5 118.5
q-17 327 -5 339zM263 581q0 8 -11 21.5t-31 28.5t-55 28t-77 17l-33 3l-3 -35q-3 -35 1 -117l4 -83l21 1q18 0 61.5 15.5t51.5 15.5q12 0 45 37.5t29 47.5q-3 10 -3 20z" />
    <glyph glyph-name="S" unicode="S" horiz-adv-x="279" 
d="M144 694q38 34 59 35t38 -32t24.5 -69.5t-1.5 -46.5q-11 -15 -19.5 -1.5t-18.5 43.5t-18 41l-14 17l-16 -14q-16 -14 -36.5 -58.5t-20.5 -64.5q0 -25 21 -86t51 -123q57 -116 57 -161q0 -24 -10 -50.5t-25 -43.5q-13 -15 -23.5 -19t-39.5 -5q-25 0 -40 3.5t-19.5 8.5
t-10 9t-13.5 4q-10 0 -25 20q-20 27 -28.5 57t-3.5 50t22 20q12 0 15.5 -6t6.5 -30q4 -34 13 -50.5t31 -27.5q48 -22 69 -14t27 51q9 66 -57 198q-76 151 -43 270q6 25 16 39.5t32 35.5z" />
    <glyph glyph-name="T" unicode="T" horiz-adv-x="423" 
d="M174 687q106 15 172.5 14t66.5 -27q0 -15 -15.5 -19t-52.5 0q-44 5 -79 0.5t-44 -16.5q-13 -18 -17 -82t-4 -257v-259l-16 -2q-15 -2 -19 11t-3 297l1 284l-68 5q-50 3 -68 11t-18 28q0 11 12 18t25 3q59 -18 127 -9z" />
    <glyph glyph-name="U" unicode="U" horiz-adv-x="279" 
d="M16 710q8 10 17.5 10.5t14.5 -7.5q4 -5 7.5 -103t12.5 -217t24 -169q19 -60 49.5 -95.5t51.5 -21.5q19 11 26.5 38t10 88t0.5 201q-1 144 -3.5 195t-8.5 59q-11 12 -0.5 23t30.5 8l21 -2l-1 -244q0 -220 -12.5 -312t-58.5 -104q-34 -8 -72.5 24.5t-47.5 78.5
q-3 15 -10.5 32.5t-18.5 64.5q-3 16 -8 37.5t-7 30.5t-5 27t-4.5 39.5t-3.5 55t-5 85.5q-5 100 -5 136t6 42z" />
    <glyph glyph-name="V" unicode="V" horiz-adv-x="287" 
d="M235 741q2 5 16.5 1.5t20.5 -10.5q3 -5 4 -8t0.5 -8t-3 -17t-5 -29.5t-6 -51.5t-6.5 -77q-4 -62 -6 -88t-3.5 -39.5t-2.5 -26.5t-5.5 -65t-11.5 -139q-9 -110 -17 -122q-14 -18 -25 3q-7 13 -7 36q0 22 -20.5 90.5t-31.5 81.5q-4 5 -16.5 77t-24.5 98q-12 27 -31.5 90.5
t-19.5 75.5q0 8 -11 32t-13 43q-1 13 2 18t13 6q9 2 14.5 -3t15 -30t19.5 -64t31 -120q15 -58 34 -117.5t29 -91t10 -47.5q0 -21 8 -26q4 -3 6 5q1 2 1 4q0 4 1 34.5t4.5 79.5t10.5 108l16 129q3 25 5 66t3 70.5t2 31.5z" />
    <glyph glyph-name="W" unicode="W" horiz-adv-x="379" 
d="M331 719q20 14 31.5 -0.5t2.5 -42.5q-6 -18 -13 -97t-13 -98q-8 -23 -12 -213l-4 -191h-17q-7 0 -11 1.5t-8 6t-6 7.5t-7 13.5t-8 15.5q-12 23 -12 40q0 13 -10 31.5t-11 35.5q0 12 -1.5 17t-4 9t-9 19.5t-14.5 39.5q-16 48 -22 48q-12 0 -24 -179q-5 -74 -9 -97.5
t-12 -28.5q-29 -18 -42 41q-4 16 -12 95l-15 132q-10 91 -31 164.5t-25 144.5q-3 48 -1.5 61.5t9.5 16.5q18 7 25 -11t10 -78q4 -64 15 -105t11 -63q1 -23 9.5 -75.5t9.5 -61.5q9 -93 18 -93q7 0 7 10q0 24 9.5 82t15.5 75q11 28 11 74q0 30 2.5 39.5t12.5 15.5
q18 9 31 -4.5t9 -38.5q-4 -29 12 -111.5t30 -105.5q8 -12 13.5 -23.5t6.5 -17t3.5 -9.5t7.5 -5q4 -2 6 18.5t2.5 53.5t0.5 68t1.5 69.5t4.5 50.5q7 34 8 96t4 105.5t15 52.5z" />
    <glyph glyph-name="X" unicode="X" horiz-adv-x="303" 
d="M259 665q9 12 15 12.5t14 -9.5q10 -11 -5 -31q-13 -19 -43 -78t-30 -65q0 -4 -4.5 -13.5t-14.5 -30t-18 -41.5q-10 -25 -10.5 -35.5t7.5 -36.5q7 -20 18 -46.5t22 -71.5q15 -56 36 -90q35 -57 11 -77q-20 -17 -37 29q-4 11 -12 37q-14 46 -24 67q-3 8 -14 36t-19.5 48
t-11.5 20q-10 0 -22.5 -31.5t-36.5 -115.5q-18 -65 -24.5 -77.5t-21.5 -12.5q-18 0 -22.5 12t6.5 31q18 30 49 133.5t39 113.5q11 17 8 34t-27 64q-28 56 -28 68q0 16 -34 88q-11 24 -7.5 40.5t19.5 16.5q12 0 15.5 -5t3.5 -14.5t6 -33t19 -50.5q21 -46 21 -52
q0 -3 10.5 -14.5t13.5 -28.5q5 -23 10 -23q9 1 53 101q1 3 3 7q42 95 67 125z" />
    <glyph glyph-name="Y" unicode="Y" horiz-adv-x="295" 
d="M251 715q4 6 17 6q12 0 14.5 -10.5t1.5 -48.5q-1 -35 -1 -59q0 -157 -58 -217q-20 -21 -24.5 -35t-9.5 -77q-3 -46 -2.5 -83.5t2.5 -63.5t2 -43t-4 -22q-8 -9 -25.5 -9.5t-18.5 8.5q-3 40 13 241l5 59l-26 11q-26 11 -42 32q-24 32 -40.5 83.5t-25 91t-13.5 45.5
q-2 2 -4 8.5t-2.5 14.5t4.5 14t17 6q11 0 16 -8t14 -41q8 -31 17 -56t18 -62q13 -54 26 -68q10 -11 26 -12.5t25 8.5q10 9 29.5 9t28.5 20q14 30 18 95t1.5 107t0.5 56z" />
    <glyph glyph-name="Z" unicode="Z" horiz-adv-x="470" 
d="M67 142q0 6 75.5 108.5t75.5 113.5q0 12 75.5 113t99.5 121q12 10 4 20q-5 5 -41 7t-140 1q-160 -2 -170 4q-4 2 -4 8q0 8 6 12t29.5 7t59.5 5t106 4q136 4 139 7q5 6 17.5 4.5t16.5 -6.5q4 -8 22 -8q16 0 20 -7.5t0 -28.5q-4 -18 -79.5 -106t-99.5 -127
q-15 -26 -31 -49.5t-23 -33.5t-7 -13q0 -4 -15.5 -25t-36 -50t-28.5 -46q-14 -30 -29 -43q-15 -14 -13 -23t21 -9q21 0 25 6.5t89 13t93 11.5q10 6 27.5 -4.5t17.5 -22.5q0 -17 -9 -23.5t-27 -6t-38.5 2.5t-50.5 1t-55 -9q-90 -26 -151 -29q-30 -1 -28 19q2 16 28 43
q29 30 29 38z" />
    <glyph glyph-name="bracketleft" unicode="[" horiz-adv-x="364" 
d="M223 708q9 11 14 11.5t26 -8.5q26 -11 46 -5.5t32.5 4.5t12.5 -18q0 -16 -13.5 -22.5t-49.5 -7.5q-33 -2 -41 -5.5t-18 -21.5q-26 -51 -35 -105t-30 -101q-24 -52 -31 -71.5t-12 -46.5q-11 -65 -24.5 -122.5t-20 -84t-6.5 -36.5q0 -11 7.5 -13.5t42.5 -2.5q40 0 50 -5.5
t2 -22.5q-4 -8 -17 -11.5t-46 -6.5l-78 -6q-15 -2 -21 4.5t-3.5 16t5.5 17t6 12.5q16 22 22 43t16 88q13 81 38.5 155.5t44 119t18.5 64.5q0 21 26 98t37 90z" />
    <glyph glyph-name="backslash" unicode="\" horiz-adv-x="147" 
d="M18 647q18 19 24 -17q2 -10 4 -34q5 -50 12 -69q8 -22 23 -141.5t15 -156.5q0 -30 10 -70.5t23 -59.5q9 -14 8.5 -18.5t-11.5 -16.5q-16 -15 -23 -8q-8 8 -16 40t-12.5 62.5t-9.5 71t-6 45.5q-4 23 -13.5 98t-21.5 141q-13 74 -14 99.5t8 33.5z" />
    <glyph glyph-name="bracketright" unicode="]" horiz-adv-x="336" 
d="M326 652q0 -8 -18 -46.5t-18 -47.5q0 -13 -11 -34q-13 -25 -37 -127t-24 -133q0 -26 -20 -113t-31 -107q-5 -9 -9.5 -41t-13.5 -48.5t-29 -3.5q-13 8 -37.5 8t-43.5 0.5t-22 10.5q-6 15 10 22.5t48 4.5q37 -4 44 6q7 8 14 31.5t14.5 55.5t9.5 41q19 65 28 102t9 45
t1 18.5t6 27.5q4 16 16 77.5t26 111.5t32 78q7 11 1 30.5t-19 23.5q-7 2 -19 5l-20 5t-18 5.5t-15 6.5t-9 7t-3 9.5t6 12.5q2 1 3 3q5 6 9 6t25 -8q8 -3 12 -5q39 -15 53 -11q12 4 31 -7t19 -22z" />
    <glyph glyph-name="a" unicode="a" horiz-adv-x="254" 
d="M108 420q26 10 53.5 -4.5t27.5 -38.5q0 -13 9 -22t9 -97q0 -80 6 -84q2 -2 10 -1q15 2 19.5 -7.5t-3.5 -25.5q-9 -16 -24.5 -23t-27.5 -1t-12 23q0 33 -26 2q-6 -8 -13 -19q-21 -32 -33 -40.5t-40 -8.5q-24 0 -40 20q-10 13 -12 25.5t1 49.5q4 61 17.5 111t29 78.5
t28.5 44t21 18.5zM153 352.5q0 12.5 -10 26.5q-7 9 -12 6.5t-23 -25.5q-22 -27 -34 -56t-15 -33q-5 -6 -10.5 -72t5.5 -81q10 -8 27 -3t30 20q26 30 44 96t6 91q-8 18 -8 30.5z" />
    <glyph glyph-name="b" unicode="b" horiz-adv-x="198" 
d="M19 644q-8 30 4 39q9 6 21 -10q11 -12 13 -182t5 -172q4 -4 18 5q23 14 50 4.5t43 -37.5q13 -20 15 -56.5t-8 -55.5q-9 -16 -71 -78.5t-70 -63.5q-7 0 -19 14q-7 8 -9 20t0 39q3 46 10 75q6 24 5 229.5t-7 229.5zM142 271q-17 17 -24 17.5t-22 -15.5t-22 -37t-12 -63
q-6 -62 15 -56q17 5 47 51q28 40 31.5 62.5t-13.5 40.5z" />
    <glyph glyph-name="c" unicode="c" horiz-adv-x="224" 
d="M10 171q1 83 28 139.5t64 46.5q32 -7 53 -42t4 -52q-7 -6 -11.5 -6t-14.5 7q-16 12 -16 24q0 10 -7.5 20t-15.5 10q-12 0 -24.5 -44t-15.5 -95q-3 -50 -1 -62.5t13 -25.5q24 -24 55 -13.5t50 49.5q12 26 25 26q17 0 18 -10.5t-14 -38.5q-37 -75 -89 -73q-40 1 -56 8.5
t-29 30.5q-11 19 -13.5 36.5t-2.5 64.5z" />
    <glyph glyph-name="d" unicode="d" horiz-adv-x="226" 
d="M181 673q7 20 19.5 18t15.5 -24q2 -22 -9 -101q-19 -135 -22 -216t5 -251q2 -28 -10 -35q-16 -10 -25.5 3t-9.5 43q0 35 -7 35t-7 -5t-17.5 -25.5t-41.5 -32t-49 17.5q-27 34 6 117q16 42 32 55.5t48 12.5l36 -2v38q0 25 8.5 92.5t13.5 141.5q6 98 14 118zM113 219
q-5 20 -10.5 22.5t-19.5 -8.5q-15 -12 -27 -35t-12 -40q0 -16 10.5 -25.5t22.5 -7.5q13 2 26.5 38t9.5 56z" />
    <glyph glyph-name="e" unicode="e" horiz-adv-x="224" 
d="M88 435q30 5 42.5 3t23.5 -12q28 -28 36.5 -73.5t-7.5 -81.5q-13 -28 -22.5 -34.5t-25.5 2.5q-17 9 -48 3l-31 -7l1 -36q2 -77 47 -86q15 -4 24.5 1t33 28.5t31 27t15 -3.5t5.5 -14.5t-20 -29.5q-24 -32 -40 -40.5t-53 -8.5q-30 0 -37 4t-18 27q-25 50 -32.5 127.5
t7.5 121.5q12 32 31.5 55.5t36.5 26.5zM137 373q-11 22 -21 22.5t-34 -19.5q-16 -13 -20.5 -22.5t-4.5 -32.5l-1 -35l31 -3q31 -2 41 7q13 10 16 36t-7 47z" />
    <glyph glyph-name="f" unicode="f" horiz-adv-x="233" 
d="M106 706q27 21 50.5 12t39 -31.5t23 -47.5t3 -36.5t-24.5 -9.5q-14 1 -17.5 7t-5.5 30q-8 71 -47 34q-15 -15 -20 -43t-9 -126q-4 -111 5 -125q5 -8 22 -7q14 1 19 -1.5t6 -12.5q2 -9 -3 -15t-21 -12l-27 -11l4 -116q3 -73 1.5 -95t-7.5 -24q-8 -2 -12.5 -1t-8 12.5
t-5 30t-3.5 50.5q-5 109 -11 119q-4 5 -19 4q-22 -2 -26 5q-6 9 4 22.5t23 15.5q11 1 13 12q3 13 3 87q1 233 51 273z" />
    <glyph glyph-name="g" unicode="g" horiz-adv-x="209" 
d="M115 457q19 4 28.5 2.5t29.5 -13.5l26 -15l-5 -48q-5 -47 -11 -187q-6 -126 -14 -192t-22 -95t-40 -34q-20 -4 -35 4t-34 32q-15 19 -17 58.5t12 48.5q16 10 25.5 -3.5t9.5 -46.5q0 -34 9.5 -42.5t27.5 9.5q10 10 17.5 40t11 66.5t5.5 71.5t0 59t-6 24q-8 0 -8 -10
q0 -8 -16 -26.5t-38 -27t-46 17.5q-22 28 -13 101.5t43 138.5q17 34 30 48.5t30 18.5zM140 408q-10 11 -16.5 9t-26.5 -23q-21 -22 -30 -56.5t-9 -95.5q-1 -35 1.5 -46.5t9.5 -12.5q8 -2 15 9.5t35 67.5q17 36 24 85.5t-3 62.5z" />
    <glyph glyph-name="h" unicode="h" horiz-adv-x="218" 
d="M15 680q-8 20 -3 30.5t20 8.5q10 -1 14 -12.5t10 -57.5q7 -47 9 -115.5t2.5 -113t3.5 -46.5q2 -3 18 12t33.5 31t23.5 16q11 0 32 -21l21 -22l1 -121q0 -29 1 -56t1.5 -45.5t1.5 -35t1.5 -26.5t1.5 -18.5t1 -13.5t-0.5 -8.5t-1.5 -6t-2.5 -4t-4.5 -3.5q-7 -6 -11.5 -5.5
t-11.5 8.5q-8 8 -10.5 34.5t-2.5 120.5q0 95 -2 121t-10 35q-13 12 -20 5q-13 -14 -33 -124t-15 -145q3 -24 -5 -34.5t-28 -7.5q-12 2 -13.5 9t-0.5 38q3 67 1 132q-9 273 -12.5 350.5t-9.5 90.5z" />
    <glyph glyph-name="i" unicode="i" horiz-adv-x="65" 
d="M11 389q-2 30 0 50t5 31.5t8 17.5t7 8t3 2q7 0 11 -6t6.5 -28.5t3 -57.5t-0.5 -102l-1 -177h-36l-1 101q-1 101 -5 161zM25 632q13 10 20.5 6.5t7.5 -19.5q0 -17 -16 -19t-21 10t9 22z" />
    <glyph glyph-name="j" unicode="j" horiz-adv-x="214" 
d="M163 474.5q6 9.5 18 7.5q4 -1 5.5 -2.5t2.5 -5.5t1 -9.5v-15.5t0.5 -22t1.5 -31.5t3 -41.5q10 -94 8.5 -187t-13.5 -148q-26 -118 -60.5 -144t-88.5 31q-25 26 -29.5 40t7.5 30q19 26 44 -22q14 -28 34 -30q13 -2 18.5 2.5t13.5 22.5q18 43 22.5 91t4.5 210
q1 215 7 224.5z" />
    <glyph glyph-name="k" unicode="k" horiz-adv-x="223" 
d="M22 691q1 2 19 0l18 -3l3 -150q2 -150 9 -156q3 -3 25.5 20.5t46 48.5t28.5 25q9 0 18 -11q5 -7 2 -14t-20 -24l-6.5 -6.5t-6.5 -7t-4.5 -6.5t-3.5 -8.5t-1.5 -11.5t0 -16t3 -20t5.5 -26.5t9 -33.5t12 -41l32 -100q6 -20 1.5 -30.5t-18.5 -8.5q-11 2 -20 14t-16 34
t-11.5 42t-10 49.5t-9.5 44.5q-7 32 -14 43t-15.5 4.5t-20.5 -31.5q-15 -30 -15 -80v-90t-15 -55t-27 -10q-7 3 -8.5 12.5t1.5 40.5q3 35 5 174.5t3 262.5t2 125z" />
    <glyph glyph-name="l" unicode="l" horiz-adv-x="75" 
d="M46 685q12 0 15 -5t4 -26q1 -30 0 -41q-8 -86 -10.5 -231t2.5 -247q2 -41 0.5 -50t-13.5 -10q-15 -2 -22 11q-9 15 -11.5 130t3.5 198q8 110 8 215q0 42 3 49t21 7z" />
    <glyph glyph-name="m" unicode="m" horiz-adv-x="336" 
d="M15 488q8 9 14.5 8.5t20.5 -11.5q10 -8 11.5 -14t-3.5 -18t-6.5 -45t0 -61.5t5.5 -28.5t7 15.5t6.5 40.5t5.5 35q4 21 26 47.5t35 26.5q11 0 30.5 -21t19.5 -33q0 -10 3 -9q5 1 32 27q60 61 89 -1q23 -49 12 -126q-3 -21 -6 -80t-6 -107.5t-6 -52.5q-5 -8 -19 -6t-18 11
q-2 7 3 65.5t11 129t5 99.5q-2 28 -5 36t-13 10q-14 2 -33.5 -19.5t-19.5 -38.5q0 -9 -12 -60.5t-16 -88.5q-3 -31 -7 -41t-17 -17h-1q-20 -11 -24 -4q-6 12 0 146v4q6 113 0 113q-19 0 -44.5 -109t-31.5 -211q-1 -24 -5 -31.5t-17 -11.5q-19 -7 -24 -3q-6 7 -7 217t5 218z
" />
    <glyph glyph-name="n" unicode="n" horiz-adv-x="247" 
d="M88 419q7 33 32.5 65t49.5 24q9 -3 15 -3t26 -41q15 -31 18 -56.5t5 -143.5q1 -51 2 -82q1 -61 -0.5 -80t-8.5 -24q-11 -7 -23 -2q-9 3 -10.5 50.5t1 105.5t0 117t-11.5 79q-17 36 -37 24q-19 -12 -19 -54q0 -12 -2 -18t-7.5 -17t-10.5 -27q-4 -16 -17.5 -62t-20 -72.5
t-6.5 -39.5q-1 -24 -8 -40.5t-17.5 -19.5t-22.5 7q-7 8 -4 189q2 173 12 191q6 10 20 5q8 -3 9.5 -17t-1.5 -66q-5 -79 2 -79q6 0 17.5 28.5t17.5 58.5z" />
    <glyph glyph-name="o" unicode="o" horiz-adv-x="201" 
d="M120 455q6 8 19.5 6t23.5 -14q16 -17 24 -80t0 -107q-8 -41 -18.5 -59.5t-34.5 -33.5q-49 -30 -93 8q-29 25 -31 58.5t19 131.5q6 31 27.5 56.5t39.5 25.5q20 0 24 8zM153 389q-10 22 -18.5 25.5t-14 -3.5t-14.5 -17.5t-18 -12.5q-15 -4 -26.5 -35t-15.5 -75l-4 -52
l27 -19q24 -19 35.5 -15.5t31.5 33.5q19 29 24.5 85.5t-7.5 85.5z" />
    <glyph glyph-name="p" unicode="p" horiz-adv-x="212" 
d="M52 478q55 5 68 1t43 -34q27 -28 34 -47.5t0.5 -45.5t-32.5 -82q-11 -23 -29.5 -41.5t-30.5 -18.5q-8 -1 -30 -20l-22 -19l5 -108q5 -108 11 -136q3 -21 -3 -35t-18 -13.5t-22 17.5q-12 18 -15 287.5t4 278.5q7 14 37 16zM138 414q-16 16 -39 19t-33 -9q-8 -10 -10 -96
l-2 -86l22 3q25 3 37 13t27 40q39 78 -2 116z" />
    <glyph glyph-name="q" unicode="q" horiz-adv-x="216" 
d="M43 383q7 14 33.5 29.5t67.5 19.5q4 0 25 -13q15 -8 18 -15.5t1 -30.5q-1 -21 1.5 -32t6.5 -14t7.5 -7.5t1.5 -17.5t-9 -39q-12 -39 -16.5 -131.5t-6.5 -167.5t-7 -80q-6 -6 -20 -4q-13 3 -22.5 30.5t-0.5 37.5q7 8 11 102.5t7 102.5q8 25 -35 3q-23 -12 -46 -10.5
t-35 14.5q-15 17 -15 85t15 99zM133 383q-21 8 -28 5t-22 -25q-18 -28 -25 -55.5t-7 -70.5q0 -49 10 -53q33 -13 68 35q16 21 19 34.5t3 58.5q0 46 -2.5 56t-15.5 15z" />
    <glyph glyph-name="r" unicode="r" horiz-adv-x="222" 
d="M25.5 460q0.5 2 13.5 2t21.5 -9t8.5 -22q0 -14 13 -9q36 15 68 4t51 -45q10 -16 11 -23t-5 -14q-12 -15 -26 -11t-22 25q-11 24 -18 28q-10 7 -24 -1.5t-24 -25.5q-10 -21 -19.5 -110t-3.5 -123q3 -20 1 -27t-10 -12q-14 -7 -33 -5h-1q-10 1 -12.5 3t-4 13t2.5 34
q8 96 10 200q2 126 2.5 128z" />
    <glyph glyph-name="s" unicode="s" horiz-adv-x="229" 
d="M54 412q19 21 28 25t29 1q28 -3 61 -23q21 -12 26.5 -19.5t4.5 -19.5q-3 -21 -19 -21t-39 20q-26 22 -40.5 22t-29 -21t-16.5 -44l-2 -25h36q40 -1 63.5 -8.5t40.5 -25.5q37 -36 10 -113q-13 -38 -27 -48t-55 -10q-35 0 -45 4t-33 27q-30 31 -30 35.5t15 13.5q10 5 17 2
t23 -18q32 -31 65.5 -19.5t41.5 57.5q5 29 -14.5 42.5t-63.5 13.5q-41 0 -66 13t-25 35q0 55 44 104z" />
    <glyph glyph-name="t" unicode="t" horiz-adv-x="228" 
d="M86.5 681q4.5 5 19.5 2q10 -1 12.5 -14.5t3.5 -73.5q2 -86 5.5 -96t30 -6.5t43.5 -2.5t17 -19q0 -16 -12.5 -23t-41.5 -9l-36 -2l-2 -83q-1 -60 2 -113.5t6.5 -77.5t2 -42t-11.5 -28q-13 -14 -25 -10.5t-12 21.5q-1 16 -2 164l-2 147l-18 -3q-33 -5 -43.5 -2.5
t-12.5 14.5q-2 17 11 31t32 14q18 0 24.5 7t9.5 32.5t-1 74.5q-4 93 0.5 98z" />
    <glyph glyph-name="u" unicode="u" horiz-adv-x="281" 
d="M179 488q3 10 17 9.5t23 -11.5q9 -10 0 -66q-12 -80 -3 -148t36 -103l19 -25l-15 -15q-10 -9 -15.5 -10t-19.5 6q-21 10 -24 30q-4 23 -12.5 22.5t-19.5 -24.5q-9 -22 -36.5 -47t-41.5 -25q-15 0 -31.5 23.5t-19.5 51.5q-14 114 -24 258q-3 46 -1.5 58.5t9.5 15.5
q15 6 21 -8.5t8 -61.5q11 -248 41 -284q8 -10 15 -4.5t21 32.5q23 45 34 119t14 136.5t5 70.5z" />
    <glyph glyph-name="v" unicode="v" horiz-adv-x="275" 
d="M11 480q3 9 8 9.5t18 -6.5q14 -7 14 -22q0 -14 22.5 -98.5t34.5 -108.5q9 -16 14 -46q9 -51 25 -20q7 15 14 47q35 154 38 169q1 2 1 6q11 56 15.5 65t18.5 8q1 -1 2 -1q18 -2 24.5 -10t3.5 -21.5t-9.5 -27t-15.5 -32.5t-12 -33q-2 -11 -6.5 -26t-9 -34t-8.5 -52
q-8 -71 -28 -125.5t-38 -54.5q-11 0 -45 95t-41 135q-6 33 -17 72l-19 70q-8 31 -4 42z" />
    <glyph glyph-name="w" unicode="w" horiz-adv-x="362" 
d="M289 203q7 0 11.5 68t8.5 143t10 85q6 13 17 13.5t15 -11.5q2 -15 0 -21t-7 -46t-7 -91q-7 -146 -11.5 -198t-12.5 -55q-13 -5 -30.5 16.5t-26.5 53.5q-7 24 -32.5 83t-32.5 67q-6 7 -11 -19t-12.5 -80.5t-13.5 -83.5q-13 -61 -34 -59q-13 2 -22 31q-36 109 -51.5 175.5
t-20.5 104t-12 63.5q-7 28 1 36q19 19 35 -23q4 -11 8 -26l27 -125q19 -83 22 -100q5 -26 15 -9q7 14 11 47q4 41 15.5 72.5t11.5 49.5q0 26 11.5 46.5t24.5 17.5q13 -4 20 -16t12 -40q8 -48 30 -108.5t31 -60.5z" />
    <glyph glyph-name="x" unicode="x" horiz-adv-x="267" 
d="M153 303.5q0 -5.5 21.5 -43t21.5 -40.5q0 -2 13 -20t25 -38t18 -41.5t-8 -31.5q-8 -7 -13.5 -5.5t-18.5 13.5q-20 20 -29 53q-9 35 -29.5 67.5t-32.5 32.5q-9 0 -14.5 -12.5t-12.5 -32.5t-15 -32q-12 -16 -12 -28q0 -14 -19.5 -28.5t-28.5 -6.5q-11 9 -9 26.5t17 38.5
q17 23 43 75t26 63q0 14 -21 52.5t-35 49.5q-15 13 -15 33.5t15 30.5q17 11 30.5 -6.5t21.5 -44.5t17.5 -50.5t19.5 -23.5q8 0 28.5 30t41.5 66.5t22 37.5q6 9 15.5 9t16.5 -9q10 -12 -7 -43.5t-28 -43.5q-14 -15 -39.5 -53.5t-25.5 -44z" />
    <glyph glyph-name="y" unicode="y" horiz-adv-x="225" 
d="M16 444q9 8 17 7t14 -12.5t6 -27.5q0 -26 11 -93.5t16 -75.5q2 -2 13.5 -35t23.5 -44q11 -9 15 -6t16 29q10 22 13 47.5t5 93.5q3 109 16 116q6 4 20 -8q11 -9 12.5 -31t-3.5 -133q-12 -266 -29 -298q-7 -14 -7 -31q0 -15 -23 -35.5t-40 -20.5q-15 0 -47.5 15t-35.5 23
q-3 9 -13 58q-6 33 -6 43t8 17q29 29 34 -21q1 -8 1 -19q0 -29 3.5 -38.5t18.5 -22.5q22 -19 28 -19t26 27t29 88q9 56 5.5 68.5t-26.5 8.5q-14 -3 -22 0t-21 15q-24 23 -44.5 82.5t-23.5 113.5q-2 32 -5.5 57.5t-6 34t-2.5 15t4 12.5z" />
    <glyph glyph-name="z" unicode="z" horiz-adv-x="327" 
d="M246 343q0 -6 -75.5 -82.5t-75.5 -89.5q0 -9 11 -8q15 1 115 26q64 16 81 13.5t14 -27.5q-1 -13 -7 -16t-31 -5q-45 -2 -108.5 -14t-97.5 -24q-30 -11 -38 -11.5t-16 7t-8 12.5t8 17t81 90t82 92q12 20 31 37q46 43 -14 46q-36 2 -108 -13q-20 -4 -31.5 6.5t-2.5 24.5
q5 8 23.5 11t69.5 6q134 6 149 -7q5 -5 -6.5 -27.5t-27.5 -37.5q-18 -17 -18 -26z" />
    <glyph glyph-name="braceleft" unicode="{" horiz-adv-x="259" 
d="M167 647q34 21 47.5 22.5t27.5 -13.5q12 -14 4.5 -25t-26.5 -6q-18 4 -40.5 -14t-35.5 -48q-15 -33 -19 -119q-4 -64 -8 -79.5t-22 -38.5l-24 -30l16 -17q10 -10 11.5 -16.5t-2.5 -15.5q-24 -44 -31 -115.5t11 -97.5q8 -13 15.5 -16t26.5 -1q26 2 36.5 -8t-1.5 -25
q-10 -11 -43 -11.5t-49 10.5q-22 16 -28.5 79.5t5.5 141.5q6 39 4.5 47t-16.5 20q-17 13 -16 27.5t18 19.5q28 6 45.5 61.5t11.5 75.5q-4 16 37 151q6 18 45 41z" />
    <glyph glyph-name="bar" unicode="|" 
 />
    <glyph glyph-name="braceright" unicode="}" horiz-adv-x="275" 
d="M141 624q8 11 49 6q34 -4 46.5 -11t22.5 -27q14 -26 -2 -90.5t-40.5 -135t-26.5 -91.5q-2 -19 2 -22.5t28 -6.5t28.5 -7t6.5 -24q1 -17 -2 -23t-15 -11q-18 -7 -34 -5q-11 1 -14.5 -7t-8.5 -42q-5 -31 -13 -49.5t-29 -48.5q-34 -48 -34 -53q0 -8 -41 -45.5t-46 -32.5
q-9 10 -7.5 25t12.5 25q27 24 59.5 70t43.5 75q15 37 22.5 122t13.5 103q2 6 10.5 39.5t16.5 61.5t15 43q13 31 20.5 60.5t4.5 37.5q-3 10 -28 20.5t-43 10.5q-15 0 -20.5 11t3.5 22z" />
    <glyph glyph-name="asciitilde" unicode="~" horiz-adv-x="458" 
d="M99 344q38 9 79 6t70 -16q38 -17 74.5 -20.5t54.5 8.5q32 23 44 27t21 -5q10 -11 1 -21.5t-46 -28.5q0 -1 -7 -5t-11 -5t-14.5 -4t-22 -2t-28.5 3t-40.5 8t-51.5 15q-32 11 -47.5 12.5t-49.5 -3.5q-33 -5 -45.5 -10.5t-24.5 -20.5q-20 -24 -32 -19q-27 10 -1 39
q27 31 77 42z" />
    <glyph glyph-name="cent" unicode="&#xa2;" horiz-adv-x="296" 
d="M232 640q8 11 19 6.5t13 -18.5q2 -13 -17 -46t-25 -49q-7 -20 -3.5 -28.5t31.5 -40.5q38 -42 36 -59q-6 -50 -58 19q-3 5 -7 10q-23 33 -48 -31q-4 -9 -10 -26q-10 -31 -15 -35q-5 -5 -5 -19q0 -9 -11 -46.5t-21 -71.5t-7 -38q6 -11 21.5 -5.5t29.5 23.5q11 15 17 18.5
t12 -1.5q11 -9 8.5 -19t-20.5 -29q-14 -16 -33.5 -23t-33 -9t-16.5 -7q-6 -9 -15.5 -50t-9.5 -57q0 -17 -10 -24.5t-20 2.5q-5 2 -2.5 13.5t8 22t12 29.5t9.5 35q3 20 0 29.5t-18 26.5q-21 24 -27 47t-6 82q0 35 3 53t7 26.5t17.5 31t26.5 47.5q8 17 42.5 38.5t53.5 22.5
q12 1 27.5 35t28.5 73t16 42zM150 431q0 8 -4.5 8.5t-21.5 -6.5q-19 -8 -34 -31t-27 -55.5t-14 -37.5q-11 -21 -3.5 -74.5t22.5 -58.5q6 -2 44 115.5t38 139.5z" />
    <glyph glyph-name="sterling" unicode="&#xa3;" horiz-adv-x="337" 
d="M237 639q25 13 71 -1q12 -4 17 -23.5t-2 -32.5q-3 -7 -4.5 -9t-4.5 -1.5t-5.5 3.5t-9.5 11q-18 24 -32.5 18.5t-33.5 -44.5q-45 -89 -35 -105q4 -6 45 3q53 13 48 0q-4 -14 -65 -32q-34 -10 -48.5 -31t-29.5 -80q-19 -70 -26 -83q-16 -32 10 -52t84 -20q51 0 56 -11
q6 -17 -10 -24.5t-58 -7.5q-32 0 -46.5 3t-27.5 12q-17 13 -26.5 10.5t-16.5 -22.5q-7 -17 -32 -22q-23 -4 -31 1t-13 25q-5 26 11 56.5t37 34.5q14 2 21.5 9t11 20.5t5.5 28.5t6 43t10 55l5 20l-35 -5q-36 -4 -50 7q-29 22 30 31q10 1 22 2q36 3 44 7t21 25q16 29 21 64
q4 30 26 69t40 48z" />
    <glyph glyph-name="section" unicode="&#xa7;" 
 />
    <glyph glyph-name="guillemotleft" unicode="&#xab;" horiz-adv-x="313" 
d="M183 314q0 19 43 56q53 45 72 30q3 -3 5 -7q4 -12 -30 -47l-35 -34l27 -16q16 -10 21 -16.5t3 -18.5q-4 -38 -50 -10q-37 22 -52 51q-4 7 -4 12zM125 398q28 18 36 20t11.5 -8.5t-42.5 -59.5q-41 -42 -45.5 -61.5t20.5 -42.5q14 -13 16.5 -19t-2.5 -13q-8 -9 -16 -10.5
t-17 4t-16.5 12.5t-18.5 16.5t-21 14.5q-23 12 -20 29.5t31 35.5q23 16 40 40.5t44 41.5z" />
    <glyph glyph-name="guillemotright" unicode="&#xbb;" horiz-adv-x="320" 
d="M212 401q-9 4 -8.5 25t16.5 21q8 0 37.5 -34t40.5 -57q1 0 4 -5.5t4 -9l3 -10.5t-1 -14.5t-7.5 -18t-15 -23t-25.5 -27.5q-10 -10 -20.5 -21t-15.5 -17t-11.5 -12.5t-9.5 -6.5h-9q-15 6 -9 21.5t36 52.5q40 49 40 61q0 9 -19.5 38.5t-29.5 36.5zM37 455q11 0 29 -32.5
t24 -32.5q11 0 26.5 -17.5t15.5 -30.5q0 -17 -17 -28q-16 -10 -32 -35.5t-16 -39.5q0 -13 -13 -29q-8 -11 -13.5 -12t-15.5 4q-15 8 -15 20.5t16 33.5q18 23 29.5 46.5t11.5 35.5q0 14 -29 47q-22 25 -24.5 32t6.5 20q11 18 17 18z" />
    <glyph glyph-name="questiondown" unicode="&#xbf;" horiz-adv-x="233" 
d="M176 395q14 19 30 3q13 -15 9 -38q-4 -18 1 -68.5t0 -58.5q-4 -10 -10 -12t-23 1q-17 2 -29 -1.5t-34 -18.5q-28 -19 -41 -38.5t-18 -49.5q-4 -25 11 -40t43 -15q22 0 34.5 7.5t20.5 4.5q11 -4 9 -16.5t-6.5 -22.5t-5.5 -12q-8 -8 -49.5 -5.5t-51.5 11.5q-12 11 -19.5 11
t-18.5 12t-16.5 34.5t10.5 53.5q15 29 15 39t32.5 40t55.5 41q27 12 34 26t9 57q1 46 8 55zM181 553q8 9 19.5 7.5t19 -13t2 -23.5t-18.5 -12q-14 0 -22.5 15t0.5 26z" />
    <glyph glyph-name="Agrave" unicode="&#xc0;" 
 />
    <glyph glyph-name="Aacute" unicode="&#xc1;" 
 />
    <glyph glyph-name="Acircumflex" unicode="&#xc2;" 
 />
    <glyph glyph-name="Adieresis" unicode="&#xc4;" 
 />
    <glyph glyph-name="Ccedilla" unicode="&#xc7;" 
 />
    <glyph glyph-name="Egrave" unicode="&#xc8;" 
 />
    <glyph glyph-name="Eacute" unicode="&#xc9;" 
 />
    <glyph glyph-name="Ecircumflex" unicode="&#xca;" 
 />
    <glyph glyph-name="Edieresis" unicode="&#xcb;" 
 />
    <glyph glyph-name="Icircumflex" unicode="&#xce;" 
 />
    <glyph glyph-name="Idieresis" unicode="&#xcf;" 
 />
    <glyph glyph-name="Ntilde" unicode="&#xd1;" 
 />
    <glyph glyph-name="Oacute" unicode="&#xd3;" 
 />
    <glyph glyph-name="Ocircumflex" unicode="&#xd4;" 
 />
    <glyph glyph-name="Odieresis" unicode="&#xd6;" 
 />
    <glyph glyph-name="Ugrave" unicode="&#xd9;" 
 />
    <glyph glyph-name="Uacute" unicode="&#xda;" 
 />
    <glyph glyph-name="Ucircumflex" unicode="&#xdb;" 
 />
    <glyph glyph-name="Udieresis" unicode="&#xdc;" 
 />
    <glyph glyph-name="germandbls" unicode="&#xdf;" 
 />
    <glyph glyph-name="agrave" unicode="&#xe0;" 
 />
    <glyph glyph-name="aacute" unicode="&#xe1;" 
 />
    <glyph glyph-name="acircumflex" unicode="&#xe2;" 
 />
    <glyph glyph-name="adieresis" unicode="&#xe4;" 
 />
    <glyph glyph-name="ccedilla" unicode="&#xe7;" 
 />
    <glyph glyph-name="egrave" unicode="&#xe8;" 
 />
    <glyph glyph-name="eacute" unicode="&#xe9;" 
 />
    <glyph glyph-name="ecircumflex" unicode="&#xea;" 
 />
    <glyph glyph-name="edieresis" unicode="&#xeb;" 
 />
    <glyph glyph-name="icircumflex" unicode="&#xee;" 
 />
    <glyph glyph-name="idieresis" unicode="&#xef;" 
 />
    <glyph glyph-name="oacute" unicode="&#xf3;" 
 />
    <glyph glyph-name="ocircumflex" unicode="&#xf4;" 
 />
    <glyph glyph-name="odieresis" unicode="&#xf6;" 
 />
    <glyph glyph-name="ugrave" unicode="&#xf9;" 
 />
    <glyph glyph-name="uacute" unicode="&#xfa;" 
 />
    <glyph glyph-name="ucircumflex" unicode="&#xfb;" 
 />
    <glyph glyph-name="udieresis" unicode="&#xfc;" 
 />
    <glyph glyph-name="eogonek" unicode="&#x119;" 
 />
    <glyph glyph-name="quotedblleft" unicode="&#x201c;" horiz-adv-x="350" 
d="M61 627q18 8 36.5 7t26.5 -10q8 -10 2.5 -17.5t-20.5 -7.5q-14 0 -28.5 -15.5t-25.5 -41.5q-19 -47 23 -43q25 3 25 -7q0 -9 -24 -19q-19 -9 -25.5 -8.5t-19.5 10.5q-25 22 -20 55t21.5 63t28.5 34zM271 634q6 0 25.5 14.5t21.5 14.5q7 1 14.5 -10.5t7.5 -23.5
q0 -10 -4 -13t-16 -3q-18 0 -38 -18.5t-25 -39.5q-3 -12 -0.5 -18.5t14.5 -13.5q17 -12 17 -19t-17 -14q-28 -10 -51 16.5t-10 54.5q9 18 31.5 45.5t29.5 27.5z" />
    <glyph glyph-name="quotedblbase" unicode="&#x201e;" horiz-adv-x="330" 
d="M280 138q11 18 25 -1q7 -9 9 -24q9 -46 5 -74t-21 -55q-16 -26 -26 -29.5t-20 13.5q-4 6 -0.5 15t17.5 26l24 31l-8 45q-9 45 -5 53zM75 149q10 11 16 9t23 -24q16 -20 17 -27t-5.5 -18t-6.5 -29q0 -20 -29 -57t-48 -42q-26 -7 -31 13q-6 21 17 34l10 4q23 6 33 20t8 29
t-5 32.5t-5 31.5t6 24z" />
    <glyph glyph-name="bullet" unicode="&#x2022;" 
 />
    <glyph glyph-name="Euro" unicode="&#x20ac;" horiz-adv-x="308" 
d="M196 643q35 21 74 -4q13 -9 23 -47t2 -47q-9 -8 -20.5 1t-18.5 31q-4 15 -9.5 20t-15.5 5t-18.5 -7.5t-20.5 -28.5q-11 -19 -22.5 -45.5t-17.5 -46.5t-2 -21q5 0 41 -1q25 -1 30.5 -3.5t5.5 -15.5q0 -10 -5 -14.5t-19 -8.5l-46 -11q-24 -6 -26 -20q-2 -8 1 -9.5t16 2.5
q26 7 34.5 5.5t9.5 -12.5q2 -9 -5.5 -15t-28.5 -15q-28 -13 -37 -26.5t-20 -60.5q-10 -45 1 -77.5t37 -32.5q15 0 42 27q17 16 27.5 19.5t11.5 -5t-6 -27.5q-13 -30 -33 -44.5t-54 -17.5q-28 -3 -35.5 -0.5t-16.5 16.5q-9 13 -11.5 32.5t-1.5 72.5q0 77 -6 81q-2 2 -8 0
q-15 -4 -28 6t-9 21q3 9 29 16.5t32 14.5q5 6 5.5 15t-2.5 15t-9 5q-14 -4 -29 10q-20 18 15 31q6 2 12 3l32 8l27 78q23 67 36 90t37 38z" />
  </font>
</defs>
</svg>
